<svg
  xmlns="http://www.w3.org/2000/svg"
  width="1600"
  height="940"
  viewBox="0 0 1600 940"
  role="img"
  aria-labelledby="title description"
>
  <title id="title">OpenCloud File Archiver runtime architecture</title>
  <desc id="description">
    The OpenCloud Web file archiver extension sends authenticated archive, extraction and
    preview requests through the same-origin archive route to a Go companion service. The
    service uses the same authorization to access OpenCloud through WebDAV. Optional Core Web
    patches enhance native integration but are not required.
  </desc>

  <defs>
    <filter id="shadow" x="-10%" y="-10%" width="120%" height="130%">
      <feDropShadow dx="0" dy="3" stdDeviation="5" flood-color="#0f172a" flood-opacity="0.10" />
    </filter>
    <marker id="arrow" viewBox="0 0 10 10" refX="9" refY="5" markerWidth="7" markerHeight="7" orient="auto-start-reverse">
      <path d="M 0 0 L 10 5 L 0 10 z" fill="#334155" />
    </marker>
    <marker id="arrow-purple" viewBox="0 0 10 10" refX="9" refY="5" markerWidth="7" markerHeight="7" orient="auto-start-reverse">
      <path d="M 0 0 L 10 5 L 0 10 z" fill="#7c3aed" />
    </marker>
    <style>
      text {
        font-family: Inter, ui-sans-serif, system-ui, -apple-system, BlinkMacSystemFont, "Segoe UI", sans-serif;
        letter-spacing: 0;
      }
      .title { fill: #0f172a; font-size: 32px; font-weight: 750; }
      .subtitle { fill: #475569; font-size: 15px; font-weight: 450; }
      .zone-title { fill: #0f172a; font-size: 18px; font-weight: 700; }
      .zone-kicker { fill: #64748b; font-size: 11px; font-weight: 700; }
      .card-title { fill: #0f172a; font-size: 14px; font-weight: 700; }
      .body { fill: #475569; font-size: 13px; font-weight: 450; }
      .small { fill: #64748b; font-size: 11px; font-weight: 500; }
      .mono {
        fill: #334155;
        font-family: "SFMono-Regular", Consolas, "Liberation Mono", monospace;
        font-size: 11px;
        font-weight: 600;
      }
      .badge { font-size: 10px; font-weight: 750; }
    </style>
  </defs>

  <rect width="1600" height="940" fill="#f8fafc" />
  <path d="M 36 120 H 1564" stroke="#e2e8f0" />

  <!-- Header -->
  <g transform="translate(38 38)">
    <rect width="56" height="56" rx="8" fill="#0f766e" />
    <path d="M 13 20 H 43 L 40 43 H 16 Z" fill="none" stroke="#ffffff" stroke-width="2.5" stroke-linejoin="round" />
    <path d="M 16 15 H 40 L 43 20 H 13 Z" fill="#ffffff" fill-opacity="0.22" stroke="#ffffff" stroke-width="2.5" stroke-linejoin="round" />
    <path d="M 23 28 H 33 M 28 25 V 36" stroke="#ffffff" stroke-width="2.5" stroke-linecap="round" />
  </g>
  <text x="112" y="63" class="title">OpenCloud File Archiver</text>
  <text x="112" y="89" class="subtitle">Runtime architecture and authenticated data flow</text>
  <g transform="translate(1321 49)">
    <rect width="243" height="32" rx="6" fill="#ffffff" stroke="#cbd5e1" />
    <circle cx="18" cy="16" r="5" fill="#10b981" />
    <text x="32" y="21" class="small" fill="#334155">Web extension + Go service</text>
  </g>

  <!-- Browser zone -->
  <g filter="url(#shadow)">
    <rect x="36" y="150" width="220" height="510" rx="8" fill="#ffffff" stroke="#94a3b8" stroke-width="1.5" />
    <rect x="36" y="150" width="220" height="64" rx="8" fill="#f1f5f9" />
    <path d="M 36 206 H 256" stroke="#cbd5e1" />
  </g>
  <text x="58" y="175" class="zone-kicker">CLIENT</text>
  <text x="58" y="198" class="zone-title">Browser session</text>
  <g transform="translate(79 246)">
    <rect width="134" height="88" rx="7" fill="#f8fafc" stroke="#94a3b8" stroke-width="1.5" />
    <path d="M 0 20 H 134" stroke="#cbd5e1" />
    <circle cx="13" cy="10" r="3" fill="#ef4444" />
    <circle cx="24" cy="10" r="3" fill="#f59e0b" />
    <circle cx="35" cy="10" r="3" fill="#10b981" />
    <circle cx="67" cy="49" r="12" fill="#cbd5e1" />
    <path d="M 43 78 C 46 60, 88 60, 91 78" fill="#e2e8f0" />
  </g>
  <text x="146" y="360" text-anchor="middle" class="card-title">OpenCloud user</text>
  <text x="146" y="382" text-anchor="middle" class="body">Authenticated web UI</text>
  <g transform="translate(56 414)">
    <rect width="180" height="88" rx="7" fill="#f8fafc" stroke="#e2e8f0" />
    <circle cx="22" cy="25" r="10" fill="#dbeafe" />
    <path d="M 17 25 L 21 29 L 28 21" fill="none" stroke="#2563eb" stroke-width="2" stroke-linecap="round" stroke-linejoin="round" />
    <text x="42" y="29" class="card-title">User workflows</text>
    <text x="18" y="54" class="body">Create, extract, browse</text>
    <text x="18" y="73" class="body">Preview and download</text>
  </g>
  <g transform="translate(56 518)">
    <rect width="180" height="104" rx="7" fill="#f8fafc" stroke="#e2e8f0" />
    <text x="18" y="27" class="card-title">Visible feedback</text>
    <text x="18" y="51" class="body">Progress and current entry</text>
    <text x="18" y="70" class="body">Cancel and cleanup controls</text>
    <text x="18" y="89" class="body">Inline file previews</text>
  </g>

  <!-- OpenCloud Web zone -->
  <g filter="url(#shadow)">
    <rect x="296" y="150" width="480" height="510" rx="8" fill="#ffffff" stroke="#2563eb" stroke-width="1.7" />
    <rect x="296" y="150" width="480" height="64" rx="8" fill="#eff6ff" />
    <path d="M 296 206 H 776" stroke="#bfdbfe" />
  </g>
  <g transform="translate(318 166)">
    <rect width="32" height="32" rx="6" fill="#2563eb" />
    <path d="M 10 11 L 5 16 L 10 21 M 22 11 L 27 16 L 22 21 M 18 8 L 14 24" fill="none" stroke="#ffffff" stroke-width="2" stroke-linecap="round" stroke-linejoin="round" />
  </g>
  <text x="364" y="175" class="zone-kicker" fill="#1d4ed8">OPENCLOUD WEB</text>
  <text x="364" y="198" class="zone-title">File Archiver extension</text>

  <g transform="translate(318 232)">
    <rect width="436" height="75" rx="7" fill="#f8fafc" stroke="#dbeafe" />
    <rect x="16" y="16" width="42" height="42" rx="6" fill="#dbeafe" />
    <path d="M 27 28 H 47 L 45 45 H 29 Z M 29 24 H 45 L 47 28 H 27 Z" fill="none" stroke="#2563eb" stroke-width="2" stroke-linejoin="round" />
    <text x="72" y="29" class="card-title">External app bundle</text>
    <text x="72" y="50" class="mono">/web/apps/file-archiver</text>
    <text x="72" y="66" class="small">manifest.json + Vite module federation assets</text>
  </g>

  <g transform="translate(318 323)">
    <rect width="209" height="105" rx="7" fill="#ffffff" stroke="#bfdbfe" />
    <circle cx="24" cy="24" r="10" fill="#dbeafe" />
    <path d="M 19 24 H 29 M 24 19 V 29" stroke="#2563eb" stroke-width="2" stroke-linecap="round" />
    <text x="42" y="29" class="card-title">Context actions</text>
    <text x="16" y="55" class="body">Create ZIP / tar.gz</text>
    <text x="16" y="75" class="body">Download archives</text>
    <text x="16" y="95" class="body">Extract to a folder</text>
  </g>
  <g transform="translate(545 323)">
    <rect width="209" height="105" rx="7" fill="#ffffff" stroke="#bfdbfe" />
    <circle cx="24" cy="24" r="10" fill="#dbeafe" />
    <path d="M 17 25 C 21 18, 27 18, 31 25 C 27 32, 21 32, 17 25 Z" fill="none" stroke="#2563eb" stroke-width="1.8" />
    <circle cx="24" cy="25" r="3" fill="#2563eb" />
    <text x="42" y="29" class="card-title">Preview route</text>
    <text x="16" y="55" class="mono">file-archiver-preview</text>
    <text x="16" y="75" class="body">Browse archive entries</text>
    <text x="16" y="95" class="body">Text, image and PDF</text>
  </g>

  <g transform="translate(318 444)">
    <rect width="436" height="92" rx="7" fill="#ffffff" stroke="#bfdbfe" />
    <rect x="16" y="17" width="38" height="38" rx="6" fill="#dbeafe" />
    <path d="M 25 35 H 31 L 35 27 L 40 43 L 44 35 H 48" fill="none" stroke="#2563eb" stroke-width="2" stroke-linecap="round" stroke-linejoin="round" />
    <text x="68" y="30" class="card-title">Job experience</text>
    <text x="68" y="52" class="body">Runtime snackbar task panel</text>
    <text x="68" y="72" class="small">Header fallback when the snackbar extension point is absent</text>
  </g>

  <g transform="translate(318 552)">
    <rect width="436" height="78" rx="7" fill="#eff6ff" stroke="#93c5fd" />
    <text x="18" y="26" class="card-title">Authenticated API client</text>
    <text x="18" y="49" class="body">REST commands, SSE / polling, preview content and downloads</text>
    <text x="18" y="67" class="mono">Authorization: Bearer &lt;OpenCloud access token&gt;</text>
  </g>

  <!-- Same-origin routing zone -->
  <g filter="url(#shadow)">
    <rect x="816" y="246" width="145" height="318" rx="8" fill="#ffffff" stroke="#64748b" stroke-width="1.5" />
    <rect x="816" y="246" width="145" height="58" rx="8" fill="#f1f5f9" />
    <path d="M 816 296 H 961" stroke="#cbd5e1" />
  </g>
  <text x="888.5" y="270" text-anchor="middle" class="zone-kicker">EDGE ROUTING</text>
  <text x="888.5" y="289" text-anchor="middle" class="card-title">Reverse proxy</text>
  <g transform="translate(837 322)">
    <rect width="103" height="38" rx="6" fill="#0f172a" />
    <text x="51.5" y="24" text-anchor="middle" class="mono" fill="#ffffff">/archive</text>
  </g>
  <text x="888.5" y="389" text-anchor="middle" class="body">Same origin</text>
  <text x="888.5" y="411" text-anchor="middle" class="body">TLS termination</text>
  <path d="M 844 439 H 933" stroke="#e2e8f0" />
  <text x="888.5" y="466" text-anchor="middle" class="small">REST API</text>
  <text x="888.5" y="486" text-anchor="middle" class="small">Job updates</text>
  <text x="888.5" y="506" text-anchor="middle" class="small">Downloads</text>
  <g transform="translate(843 525)">
    <rect width="91" height="23" rx="5" fill="#ecfdf5" stroke="#a7f3d0" />
    <text x="45.5" y="16" text-anchor="middle" class="badge" fill="#047857">TOKEN PASSES</text>
  </g>

  <!-- Companion service zone -->
  <g filter="url(#shadow)">
    <rect x="1001" y="150" width="330" height="510" rx="8" fill="#ffffff" stroke="#0f766e" stroke-width="1.7" />
    <rect x="1001" y="150" width="330" height="64" rx="8" fill="#ecfdf5" />
    <path d="M 1001 206 H 1331" stroke="#a7f3d0" />
  </g>
  <g transform="translate(1023 166)">
    <rect width="32" height="32" rx="6" fill="#0f766e" />
    <path d="M 10 10 H 22 M 10 16 H 22 M 10 22 H 18" stroke="#ffffff" stroke-width="2" stroke-linecap="round" />
  </g>
  <text x="1069" y="175" class="zone-kicker" fill="#047857">GO COMPANION SERVICE</text>
  <text x="1069" y="198" class="zone-title">file-archiver-service</text>

  <g transform="translate(1023 232)">
    <rect width="286" height="76" rx="7" fill="#f8fafc" stroke="#a7f3d0" />
    <text x="16" y="27" class="card-title">HTTP API</text>
    <text x="16" y="49" class="mono">/api/compressions  /api/extractions</text>
    <text x="16" y="67" class="mono">/api/previews      /api/jobs</text>
  </g>

  <g transform="translate(1023 324)">
    <rect width="286" height="102" rx="7" fill="#ffffff" stroke="#a7f3d0" />
    <circle cx="24" cy="25" r="10" fill="#d1fae5" />
    <path d="M 24 19 V 25 L 29 28" fill="none" stroke="#0f766e" stroke-width="2" stroke-linecap="round" />
    <text x="43" y="30" class="card-title">Job coordinator</text>
    <text x="16" y="57" class="body">Bounded worker pool and cancellation</text>
    <text x="16" y="77" class="body">In-memory jobs and preview sessions</text>
    <text x="16" y="95" class="small">Per-user isolation via authorization hash</text>
  </g>

  <g transform="translate(1023 442)">
    <rect width="137" height="94" rx="7" fill="#ffffff" stroke="#a7f3d0" />
    <text x="14" y="26" class="card-title">Archive engine</text>
    <text x="14" y="49" class="body">ZIP / AES-256</text>
    <text x="14" y="68" class="body">7z / tar / gzip</text>
    <text x="14" y="86" class="small">Path + size limits</text>
  </g>
  <g transform="translate(1172 442)">
    <rect width="137" height="94" rx="7" fill="#ffffff" stroke="#a7f3d0" />
    <text x="14" y="26" class="card-title">Preview engine</text>
    <text x="14" y="49" class="body">Entry index</text>
    <text x="14" y="68" class="body">Bounded streams</text>
    <text x="14" y="86" class="small">Short-lived tokens</text>
  </g>

  <g transform="translate(1023 552)">
    <rect width="286" height="78" rx="7" fill="#ecfdf5" stroke="#6ee7b7" />
    <text x="16" y="27" class="card-title">Ephemeral working data</text>
    <text x="16" y="49" class="mono">FILE_ARCHIVER_TMP_DIR</text>
    <text x="16" y="67" class="small">Spools and generated downloads; TTL cleanup</text>
  </g>

  <!-- OpenCloud platform zone -->
  <g filter="url(#shadow)">
    <rect x="1371" y="150" width="193" height="510" rx="8" fill="#ffffff" stroke="#b45309" stroke-width="1.7" />
    <rect x="1371" y="150" width="193" height="64" rx="8" fill="#fffbeb" />
    <path d="M 1371 206 H 1564" stroke="#fde68a" />
  </g>
  <text x="1393" y="175" class="zone-kicker" fill="#92400e">OPENCLOUD</text>
  <text x="1393" y="198" class="zone-title">Platform</text>
  <g transform="translate(1393 232)">
    <rect width="149" height="76" rx="7" fill="#fffbeb" stroke="#fde68a" />
    <text x="14" y="27" class="card-title">Web asset mount</text>
    <text x="14" y="49" class="mono">WEB_ASSET_</text>
    <text x="14" y="65" class="mono">APPS_PATH</text>
  </g>
  <g transform="translate(1393 324)">
    <rect width="149" height="106" rx="7" fill="#ffffff" stroke="#fde68a" />
    <circle cx="25" cy="26" r="11" fill="#fef3c7" />
    <path d="M 18 27 H 32 M 25 20 V 34" stroke="#b45309" stroke-width="2" stroke-linecap="round" />
    <text x="43" y="31" class="card-title">WebDAV API</text>
    <text x="14" y="58" class="mono">PROPFIND / GET</text>
    <text x="14" y="77" class="mono">PUT / MKCOL</text>
    <text x="14" y="96" class="small">User authorization</text>
  </g>
  <g transform="translate(1393 446)">
    <rect width="149" height="122" rx="7" fill="#ffffff" stroke="#fde68a" />
    <path d="M 17 27 H 50 L 55 35 H 17 Z" fill="#fef3c7" stroke="#b45309" stroke-width="1.5" stroke-linejoin="round" />
    <path d="M 17 35 H 55 V 53 H 17 Z" fill="#fffbeb" stroke="#b45309" stroke-width="1.5" stroke-linejoin="round" />
    <text x="14" y="78" class="card-title">Files and folders</text>
    <text x="14" y="99" class="body">Read source data</text>
    <text x="14" y="117" class="body">Save job output</text>
  </g>
  <g transform="translate(1393 584)">
    <rect width="149" height="46" rx="7" fill="#fffbeb" stroke="#fde68a" />
    <text x="74.5" y="20" text-anchor="middle" class="badge" fill="#92400e">NO DIRECT POSIX</text>
    <text x="74.5" y="35" text-anchor="middle" class="small">WebDAV only</text>
  </g>

  <!-- Runtime flow connectors -->
  <path d="M 256 342 H 296" fill="none" stroke="#334155" stroke-width="2.2" marker-end="url(#arrow)" />
  <path d="M 296 460 H 256" fill="none" stroke="#334155" stroke-width="2.2" marker-end="url(#arrow)" />
  <rect x="263" y="317" width="27" height="18" rx="4" fill="#ffffff" stroke="#e2e8f0" />
  <text x="276.5" y="330" text-anchor="middle" class="badge" fill="#475569">UI</text>
  <rect x="259" y="470" width="35" height="18" rx="4" fill="#ffffff" stroke="#e2e8f0" />
  <text x="276.5" y="483" text-anchor="middle" class="badge" fill="#475569">LIVE</text>

  <path d="M 776 342 H 816" fill="none" stroke="#334155" stroke-width="2.2" marker-end="url(#arrow)" />
  <path d="M 816 460 H 776" fill="none" stroke="#334155" stroke-width="2.2" marker-end="url(#arrow)" />
  <path d="M 961 342 H 1001" fill="none" stroke="#334155" stroke-width="2.2" marker-end="url(#arrow)" />
  <path d="M 1001 460 H 961" fill="none" stroke="#334155" stroke-width="2.2" marker-end="url(#arrow)" />

  <path d="M 1331 342 H 1371" fill="none" stroke="#334155" stroke-width="2.2" marker-end="url(#arrow)" />
  <path d="M 1371 460 H 1331" fill="none" stroke="#334155" stroke-width="2.2" marker-end="url(#arrow)" />
  <rect x="1336" y="317" width="30" height="18" rx="4" fill="#ffffff" stroke="#e2e8f0" />
  <text x="1351" y="330" text-anchor="middle" class="badge" fill="#475569">DAV</text>
  <rect x="1334" y="470" width="34" height="18" rx="4" fill="#ffffff" stroke="#e2e8f0" />
  <text x="1351" y="483" text-anchor="middle" class="badge" fill="#475569">DATA</text>

  <!-- End-to-end authorization note -->
  <g transform="translate(594 676)">
    <rect width="412" height="34" rx="7" fill="#ffffff" stroke="#cbd5e1" />
    <path d="M 19 9 L 27 12 V 18 C 27 23, 24 26, 19 28 C 14 26, 11 23, 11 18 V 12 Z" fill="#dcfce7" stroke="#15803d" stroke-width="1.5" />
    <path d="M 15 18 L 18 21 L 23 15" fill="none" stroke="#15803d" stroke-width="1.5" stroke-linecap="round" stroke-linejoin="round" />
    <text x="42" y="22" class="body" fill="#334155">The user's Authorization is forwarded end-to-end; the service does not bypass WebDAV.</text>
  </g>

  <!-- Optional Core Web patches -->
  <g filter="url(#shadow)">
    <rect x="36" y="746" width="1528" height="139" rx="8" fill="#ffffff" stroke="#7c3aed" stroke-width="1.5" stroke-dasharray="7 5" />
  </g>
  <text x="60" y="775" class="zone-kicker" fill="#6d28d9">OPTIONAL INTEGRATION</text>
  <text x="60" y="800" class="zone-title">Core Web patches</text>
  <g transform="translate(228 771)">
    <rect width="95" height="25" rx="5" fill="#f5f3ff" stroke="#c4b5fd" />
    <text x="47.5" y="17" text-anchor="middle" class="badge" fill="#6d28d9">NOT REQUIRED</text>
  </g>
  <text x="60" y="829" class="body">Capabilities are detected at runtime.</text>
  <text x="60" y="849" class="body">Fallbacks keep unpatched Web builds working.</text>
  <text x="60" y="869" class="small">Reference patches support integration experiments and upstreaming.</text>

  <g transform="translate(486 769)">
    <rect width="238" height="88" rx="7" fill="#fafafa" stroke="#ddd6fe" />
    <rect x="14" y="14" width="26" height="26" rx="5" fill="#ede9fe" />
    <text x="27" y="32" text-anchor="middle" class="badge" fill="#6d28d9">01</text>
    <text x="50" y="31" class="card-title">Context submenu</text>
    <text x="14" y="57" class="body">One-level child actions</text>
    <text x="14" y="76" class="mono">global.files.context-actions</text>
  </g>
  <g transform="translate(740 769)">
    <rect width="238" height="88" rx="7" fill="#fafafa" stroke="#ddd6fe" />
    <rect x="14" y="14" width="26" height="26" rx="5" fill="#ede9fe" />
    <text x="27" y="32" text-anchor="middle" class="badge" fill="#6d28d9">02</text>
    <text x="50" y="31" class="card-title">Snackbar target</text>
    <text x="14" y="57" class="body">Native archive task panel</text>
    <text x="14" y="76" class="mono">app.runtime.snackbars</text>
  </g>
  <g transform="translate(994 769)">
    <rect width="248" height="88" rx="7" fill="#fafafa" stroke="#ddd6fe" />
    <rect x="14" y="14" width="26" height="26" rx="5" fill="#ede9fe" />
    <text x="27" y="32" text-anchor="middle" class="badge" fill="#6d28d9">03</text>
    <text x="50" y="31" class="card-title">Filename-aware picker</text>
    <text x="14" y="57" class="body">Chosen name + location query</text>
    <text x="14" y="76" class="small">Legacy picker remains supported</text>
  </g>
  <g transform="translate(1258 769)">
    <rect width="282" height="88" rx="7" fill="#fafafa" stroke="#ddd6fe" />
    <rect x="14" y="14" width="26" height="26" rx="5" fill="#ede9fe" />
    <text x="27" y="32" text-anchor="middle" class="badge" fill="#6d28d9">04</text>
    <text x="50" y="31" class="card-title">Embed snackbar offset</text>
    <text x="14" y="57" class="body">Keeps task UI above picker actions</text>
    <text x="14" y="76" class="small">Embed-mode layout enhancement</text>
  </g>
  <path d="M 431 746 C 431 708, 536 705, 536 660" fill="none" stroke="#7c3aed" stroke-width="2" stroke-dasharray="6 5" marker-end="url(#arrow-purple)" />

  <!-- Footer legend -->
  <g transform="translate(36 912)">
    <path d="M 0 0 H 32" stroke="#334155" stroke-width="2.2" marker-end="url(#arrow)" />
    <text x="43" y="5" class="small">Required runtime flow</text>
    <path d="M 203 0 H 235" stroke="#7c3aed" stroke-width="2" stroke-dasharray="6 5" marker-end="url(#arrow-purple)" />
    <text x="246" y="5" class="small">Optional capability enhancement</text>
  </g>
  <text x="1564" y="917" text-anchor="end" class="small">Default service path: /archive</text>
</svg>
